<?xml version="1.0" encoding="utf-8"?>
<!-- Generator: Adobe Illustrator 19.2.1, SVG Export Plug-In . SVG Version: 6.00 Build 0)  -->
<svg version="1.1" id="Layer_1" xmlns="http://www.w3.org/2000/svg" xmlns:xlink="http://www.w3.org/1999/xlink" x="0px" y="0px"
	 viewBox="0 0 60 60" style="enable-background:new 0 0 60 60;" xml:space="preserve">
<style type="text/css">
	.st0{fill:#FFFFFF;}
	.st1{fill:#CCEAF5;}
</style>
<path class="st0" d="M43.8,42.2c0-3.9-3.3-8.3-8-10.2c-1,1.7-2.2,3.2-3.7,4c-3.2,1.6-5.6,3-5.6,3l0,0v0l0,0l0,0v0l0,0
	c0,0-2.4-1.3-5.6-3c-1.5-0.8-2.7-2.2-3.7-4c-4.7,1.9-8,6.3-8,10.2c0,4.1,0,8,0,8h17.3h0.1h17.3V42.2z"/>
<path class="st0" d="M18.2,30.8c1.8,0.3,4.1-0.1,6.6-0.3c0.5,0.1,0.9,0.2,1.4,0.2c0.5,0,1-0.1,1.4-0.2C34,30.8,39,32.6,39,19.6
	c0-8.9-5.8-16.1-12.9-16.1s-12.9,7.2-12.9,16.1c0,7.1,1.4,9.9,3.6,10.9C17.3,30.6,17.7,30.7,18.2,30.8z M16.1,14.5
	c1.3,1.9,4.8,1.5,7.8-0.9c0.8-0.6,1.4-1.3,2-2c0.1,0,0.1,0,0.2,0c0.3,0.1,0.6,0.2,0.9,0.3c0.3,0.1,0.6,0.2,0.8,0.4
	c0.3,0.1,0.5,0.3,0.8,0.5c0.2,0.2,0.5,0.4,0.6,0.6c0.2,0.2,0.4,0.4,0.5,0.6c0.2,0.2,0.3,0.4,0.4,0.6c0.1,0.2,0.2,0.3,0.3,0.5
	c0.1,0.3,0.2,0.4,0.2,0.4s0-0.2-0.1-0.5c0-0.2-0.1-0.3-0.1-0.5c-0.1-0.2-0.1-0.5-0.2-0.7c-0.1-0.3-0.2-0.5-0.3-0.8
	c-0.1-0.3-0.3-0.5-0.5-0.8c-0.2-0.3-0.4-0.6-0.7-0.8c-0.2-0.3-0.5-0.5-0.8-0.8c-0.3-0.2-0.6-0.4-0.9-0.6c0.1-0.3,0.2-0.5,0.3-0.8
	c1.1,0.5,2.2,1.1,3.1,2c3.2,3.2,2,7,4.4,4.5c0.4-0.4,0.7-0.8,1-1.2c0.1,0,0.2,0,0.2,0c0.3,0.1,0.6,0.3,0.7,0.6
	c0.3,0.6,0.4,1.4,0.2,2.2c-0.3,1.2-1.1,1.9-1.8,2l-0.5,0.1l-0.1,0.5c-1.2,4.5-4.6,9.2-8.3,9.2s-7.1-4.8-8.3-9.2l-0.1-0.5l-0.5-0.1
	c-0.6-0.1-1.4-0.8-1.8-2c-0.2-0.8-0.1-1.6,0.2-2.2C15.7,14.9,15.9,14.7,16.1,14.5z"/>
<polygon class="st1" points="0,4.8 8.5,11.7 0,18.3 "/>
</svg>
