<?xml version="1.0" encoding="utf-8"?>
<!-- Generator: Adobe Illustrator 19.2.1, SVG Export Plug-In . SVG Version: 6.00 Build 0)  -->
<svg version="1.1" id="Layer_1" xmlns="http://www.w3.org/2000/svg" xmlns:xlink="http://www.w3.org/1999/xlink" x="0px" y="0px"
	 viewBox="0 0 254.9 58.5" style="enable-background:new 0 0 254.9 58.5;" xml:space="preserve">
<style type="text/css">
	.st0{fill:#FFFFFF;}
</style>
<path class="st0" d="M41.9,45.2c0-4.2-3.6-9-8.8-11.1c-1.1,1.9-2.4,3.5-4.1,4.3c-3.5,1.8-6.1,3.2-6.1,3.2l0,0v0l0,0l0,0v0l0,0
	c0,0-2.6-1.4-6.1-3.2c-1.7-0.9-3-2.5-4.1-4.3C7.6,36.2,4,41,4,45.2C4,49.7,4,54,4,54h18.9H23h18.9V45.2z"/>
<path class="st0" d="M13.9,32.8c2,0.3,4.5-0.2,7.2-0.3c0.5,0.1,1,0.2,1.5,0.2c0.5,0,1.1-0.1,1.6-0.2c7,0.3,12.5,2.3,12.5-11.9
	c0-9.7-6.3-17.5-14-17.5s-14,7.9-14,17.5c0,7.8,1.5,10.8,3.9,11.9C12.9,32.6,13.4,32.7,13.9,32.8z M11.7,15.1c1.5,2,5.3,1.6,8.6-1
	c0.8-0.7,1.6-1.4,2.2-2.2c0.1,0,0.2,0,0.2,0c0.3,0.1,0.6,0.2,0.9,0.3c0.3,0.1,0.6,0.3,0.9,0.4c0.3,0.2,0.6,0.4,0.8,0.5
	c0.2,0.2,0.5,0.4,0.7,0.6c0.2,0.2,0.4,0.4,0.6,0.7c0.2,0.2,0.3,0.4,0.4,0.6s0.2,0.4,0.3,0.5c0.1,0.3,0.2,0.5,0.2,0.5s0-0.2-0.1-0.5
	c0-0.2-0.1-0.4-0.1-0.6c-0.1-0.2-0.1-0.5-0.2-0.8c-0.1-0.3-0.2-0.6-0.4-0.9c-0.1-0.3-0.4-0.6-0.6-0.9c-0.2-0.3-0.5-0.6-0.7-0.9
	c-0.3-0.3-0.6-0.6-0.9-0.8c-0.3-0.2-0.6-0.4-0.9-0.6c0.1-0.3,0.3-0.6,0.4-0.9c1.2,0.5,2.4,1.2,3.3,2.2c3.5,3.5,2.1,7.6,4.8,4.9
	c0.4-0.4,0.8-0.9,1.1-1.3c0.1,0,0.2,0,0.3,0c0.4,0.1,0.6,0.4,0.7,0.6c0.4,0.6,0.5,1.5,0.2,2.4c-0.3,1.3-1.2,2.1-1.9,2.2l-0.6,0.1
	l-0.2,0.6c-1.3,4.9-5,10.1-9.1,10.1s-7.7-5.2-9.1-10.1l-0.2-0.6l-0.6-0.1c-0.7-0.1-1.6-0.9-1.9-2.2c-0.2-0.9-0.1-1.8,0.2-2.4
	C11.2,15.4,11.4,15.2,11.7,15.1z"/>
<g>
	<path class="st0" d="M122.1,16.9c0,1.5-1.2,2.8-2.8,2.8c-1.6,0-2.8-1.2-2.8-2.8c0-1.5,1.2-2.7,2.8-2.7
		C120.9,14.2,122.1,15.4,122.1,16.9z M117.2,16.9c0,1.2,0.9,2.2,2.1,2.2c1.2,0,2.1-1,2.1-2.2c0-1.2-0.9-2.2-2.1-2.2
		C118.1,14.7,117.2,15.7,117.2,16.9z M118.9,18.3h-0.6v-2.7c0.2,0,0.6-0.1,1-0.1c0.5,0,0.7,0.1,0.9,0.2c0.1,0.1,0.3,0.3,0.3,0.6
		c0,0.3-0.2,0.5-0.6,0.6v0c0.3,0.1,0.4,0.3,0.5,0.7c0.1,0.4,0.1,0.6,0.2,0.7H120c-0.1-0.1-0.1-0.3-0.2-0.7c0-0.3-0.2-0.4-0.6-0.4
		h-0.3V18.3z M118.9,16.8h0.3c0.3,0,0.6-0.1,0.6-0.4c0-0.2-0.2-0.4-0.6-0.4c-0.2,0-0.3,0-0.3,0V16.8z"/>
</g>
<g>
	<path class="st0" d="M48.9,52.8l3.8-10.9h1l3.9,10.9h-0.9l-1.2-3.3h-4.7l-1.1,3.3H48.9z M51.1,48.8h4.2l-2.1-6L51.1,48.8z"/>
	<path class="st0" d="M59,46.9c0-0.7,0.2-1.2,0.6-1.5c0.4-0.3,1.1-0.5,2-0.5c0.7,0,1.4,0.1,2.2,0.2l-0.1,0.7
		c-0.8-0.2-1.5-0.2-2.1-0.2c-0.6,0-1.1,0.1-1.3,0.3c-0.3,0.2-0.4,0.5-0.4,0.9c0,0.2,0,0.3,0,0.4c0,0.1,0,0.2,0.1,0.3
		s0.1,0.2,0.2,0.2c0.1,0.1,0.2,0.1,0.3,0.2s0.3,0.1,0.5,0.2s0.4,0.1,0.7,0.2c0.4,0.1,0.8,0.2,1,0.3s0.5,0.2,0.7,0.3
		c0.2,0.1,0.3,0.2,0.4,0.3s0.2,0.2,0.2,0.4s0.1,0.3,0.1,0.5c0,0.2,0,0.4,0,0.7c0,0.8-0.2,1.4-0.7,1.7C63,52.9,62.2,53,61.3,53
		c-0.7,0-1.4-0.1-2.2-0.3l0.1-0.7c0.7,0.2,1.4,0.3,2.1,0.3c0.3,0,0.5,0,0.7,0c0.2,0,0.4-0.1,0.5-0.1c0.2-0.1,0.3-0.1,0.4-0.2
		c0.1-0.1,0.2-0.2,0.2-0.4c0.1-0.2,0.1-0.4,0.1-0.6c0-0.3,0-0.5,0-0.6c0-0.1-0.1-0.3-0.2-0.4c-0.1-0.1-0.3-0.2-0.6-0.3
		c-0.2-0.1-0.6-0.2-1-0.3c-0.4-0.1-0.7-0.2-0.9-0.3c-0.3-0.1-0.5-0.2-0.7-0.3c-0.2-0.1-0.3-0.2-0.4-0.3c-0.1-0.1-0.2-0.2-0.2-0.4
		c-0.1-0.2-0.1-0.3-0.1-0.5C59.1,47.4,59,47.2,59,46.9z"/>
	<path class="st0" d="M65.9,46.9c0-0.7,0.2-1.2,0.6-1.5c0.4-0.3,1.1-0.5,2-0.5c0.7,0,1.4,0.1,2.2,0.2l-0.1,0.7
		c-0.8-0.2-1.5-0.2-2.1-0.2c-0.6,0-1.1,0.1-1.3,0.3c-0.3,0.2-0.4,0.5-0.4,0.9c0,0.2,0,0.3,0,0.4c0,0.1,0,0.2,0.1,0.3
		s0.1,0.2,0.2,0.2c0.1,0.1,0.2,0.1,0.3,0.2s0.3,0.1,0.5,0.2s0.4,0.1,0.7,0.2c0.4,0.1,0.8,0.2,1,0.3s0.5,0.2,0.7,0.3
		c0.2,0.1,0.3,0.2,0.4,0.3s0.2,0.2,0.2,0.4s0.1,0.3,0.1,0.5c0,0.2,0,0.4,0,0.7c0,0.8-0.2,1.4-0.7,1.7c-0.4,0.3-1.2,0.5-2.1,0.5
		c-0.7,0-1.4-0.1-2.2-0.3L66,52c0.7,0.2,1.4,0.3,2.1,0.3c0.3,0,0.5,0,0.7,0c0.2,0,0.4-0.1,0.5-0.1c0.2-0.1,0.3-0.1,0.4-0.2
		c0.1-0.1,0.2-0.2,0.2-0.4c0.1-0.2,0.1-0.4,0.1-0.6c0-0.3,0-0.5,0-0.6c0-0.1-0.1-0.3-0.2-0.4c-0.1-0.1-0.3-0.2-0.6-0.3
		c-0.2-0.1-0.6-0.2-1-0.3c-0.4-0.1-0.7-0.2-0.9-0.3c-0.3-0.1-0.5-0.2-0.7-0.3c-0.2-0.1-0.3-0.2-0.4-0.3c-0.1-0.1-0.2-0.2-0.2-0.4
		c-0.1-0.2-0.1-0.3-0.1-0.5C65.9,47.4,65.9,47.2,65.9,46.9z"/>
	<path class="st0" d="M73,42.9c0-0.1,0-0.2,0-0.3c0-0.1,0-0.1,0-0.2c0-0.1,0-0.1,0.1-0.1c0,0,0.1,0,0.1-0.1c0.1,0,0.1,0,0.2,0
		c0.2,0,0.3,0,0.4,0.1c0,0.1,0.1,0.3,0.1,0.5c0,0.3,0,0.5-0.1,0.5c0,0.1-0.2,0.1-0.4,0.1c-0.2,0-0.3,0-0.4-0.1
		C73,43.3,73,43.1,73,42.9z M73.1,52.8v-7.7h0.8v7.7H73.1z"/>
	<path class="st0" d="M76.2,46.9c0-0.7,0.2-1.2,0.6-1.5c0.4-0.3,1.1-0.5,2-0.5c0.7,0,1.4,0.1,2.2,0.2l-0.1,0.7
		c-0.8-0.2-1.5-0.2-2.1-0.2c-0.6,0-1.1,0.1-1.3,0.3c-0.3,0.2-0.4,0.5-0.4,0.9c0,0.2,0,0.3,0,0.4c0,0.1,0,0.2,0.1,0.3
		c0,0.1,0.1,0.2,0.2,0.2c0.1,0.1,0.2,0.1,0.3,0.2s0.3,0.1,0.5,0.2c0.2,0,0.4,0.1,0.7,0.2c0.4,0.1,0.8,0.2,1,0.3s0.5,0.2,0.7,0.3
		c0.2,0.1,0.3,0.2,0.4,0.3s0.2,0.2,0.2,0.4c0.1,0.2,0.1,0.3,0.1,0.5c0,0.2,0,0.4,0,0.7c0,0.8-0.2,1.4-0.7,1.7
		c-0.4,0.3-1.2,0.5-2.1,0.5c-0.7,0-1.4-0.1-2.2-0.3l0.1-0.7c0.7,0.2,1.4,0.3,2.1,0.3c0.3,0,0.5,0,0.7,0c0.2,0,0.4-0.1,0.5-0.1
		c0.2-0.1,0.3-0.1,0.4-0.2c0.1-0.1,0.2-0.2,0.2-0.4c0.1-0.2,0.1-0.4,0.1-0.6c0-0.3,0-0.5,0-0.6c0-0.1-0.1-0.3-0.2-0.4
		c-0.1-0.1-0.3-0.2-0.6-0.3c-0.2-0.1-0.6-0.2-1-0.3c-0.4-0.1-0.7-0.2-0.9-0.3c-0.3-0.1-0.5-0.2-0.7-0.3c-0.2-0.1-0.3-0.2-0.4-0.3
		c-0.1-0.1-0.2-0.2-0.2-0.4c-0.1-0.2-0.1-0.3-0.1-0.5C76.2,47.4,76.2,47.2,76.2,46.9z"/>
	<path class="st0" d="M82.5,46v-0.7h1.3v-2.1l0.8-0.2v2.3h2.2L86.6,46h-2v5c0,0.3,0,0.5,0,0.6c0,0.1,0,0.3,0.1,0.4
		c0.1,0.1,0.1,0.2,0.3,0.2c0.1,0,0.3,0.1,0.5,0.1c0.5,0,1-0.1,1.5-0.2l0.1,0.7c-0.6,0.2-1.2,0.2-1.7,0.2c-0.3,0-0.5,0-0.7-0.1
		c-0.2-0.1-0.3-0.1-0.5-0.2c-0.1-0.1-0.2-0.2-0.3-0.4c-0.1-0.2-0.1-0.4-0.1-0.6c0-0.2,0-0.4,0-0.7v-5H82.5z"/>
	<path class="st0" d="M88.6,50.9c0-0.3,0-0.5,0.1-0.8c0-0.2,0.1-0.4,0.2-0.6s0.2-0.3,0.3-0.4c0.1-0.1,0.3-0.2,0.4-0.3
		c0.2-0.1,0.4-0.1,0.5-0.2c0.2,0,0.4-0.1,0.7-0.1c0.3,0,0.5,0,0.8-0.1c0.2,0,0.5,0,0.9,0c0.3,0,0.6,0,0.9,0v-1.5
		c0-0.8-0.6-1.3-1.8-1.3c-0.7,0-1.5,0.1-2.4,0.4l-0.1-0.8c0.4-0.1,0.8-0.2,1.3-0.3c0.5-0.1,0.9-0.1,1.2-0.1c0.9,0,1.6,0.2,2,0.5
		c0.4,0.4,0.6,0.8,0.6,1.5v5.9h-0.8l0-0.8c-0.9,0.6-1.8,0.9-2.7,0.9c-0.2,0-0.4,0-0.6,0c-0.2,0-0.4-0.1-0.6-0.2
		c-0.2-0.1-0.4-0.2-0.5-0.4c-0.1-0.2-0.2-0.4-0.3-0.6C88.6,51.5,88.6,51.2,88.6,50.9z M89.4,50.8c0,0.6,0.1,0.9,0.4,1.1
		c0.3,0.2,0.6,0.3,1.1,0.3c0.8,0,1.7-0.3,2.5-1v-2.2c-0.5,0-0.9,0-1,0c-0.3,0-0.6,0-0.8,0c-0.2,0-0.4,0-0.7,0s-0.4,0.1-0.6,0.1
		c-0.1,0-0.3,0.1-0.4,0.2c-0.1,0.1-0.3,0.2-0.3,0.3c-0.1,0.1-0.1,0.3-0.2,0.4C89.4,50.4,89.4,50.6,89.4,50.8z"/>
	<path class="st0" d="M96.7,52.8v-7.7h0.8l0.1,0.8c1.2-0.6,2.2-1,3-1c1.2,0,1.8,0.6,1.8,1.7v6.2h-0.8v-6.1c0-0.4-0.1-0.6-0.3-0.8
		c-0.2-0.2-0.5-0.2-0.8-0.2c-0.4,0-0.8,0.1-1.4,0.3c-0.5,0.2-1.1,0.4-1.5,0.7v6.2H96.7z"/>
	<path class="st0" d="M104.5,49c0-0.6,0-1,0.1-1.4c0-0.4,0.1-0.8,0.3-1.1c0.1-0.3,0.3-0.6,0.5-0.8c0.2-0.2,0.5-0.4,0.9-0.5
		s0.8-0.2,1.3-0.2c0.7,0,1.4,0,2,0.1l-0.1,0.8c-0.6-0.1-1.2-0.2-1.9-0.2c-0.9,0-1.5,0.2-1.8,0.7c-0.3,0.5-0.5,1.3-0.5,2.6
		c0,0.5,0,0.9,0,1.2c0,0.3,0.1,0.6,0.2,0.9c0.1,0.3,0.2,0.5,0.4,0.7c0.2,0.2,0.4,0.3,0.7,0.4c0.3,0.1,0.6,0.1,1,0.1
		c0.5,0,1.1-0.1,1.8-0.2l0.1,0.8c-0.7,0.1-1.3,0.2-1.9,0.2c-0.4,0-0.7,0-1-0.1c-0.3-0.1-0.6-0.1-0.8-0.2c-0.2-0.1-0.4-0.2-0.6-0.4
		c-0.2-0.2-0.3-0.4-0.4-0.6c-0.1-0.2-0.2-0.5-0.2-0.8c-0.1-0.3-0.1-0.6-0.1-0.9C104.5,49.7,104.5,49.4,104.5,49z"/>
	<path class="st0" d="M111.3,48.7c0-0.5,0-0.9,0.1-1.3s0.2-0.7,0.3-1c0.1-0.3,0.3-0.6,0.5-0.8c0.2-0.2,0.5-0.4,0.9-0.5
		c0.4-0.1,0.8-0.2,1.3-0.2c0.4,0,0.7,0,1,0.1c0.3,0.1,0.5,0.1,0.7,0.2c0.2,0.1,0.4,0.2,0.5,0.4c0.1,0.2,0.3,0.4,0.3,0.5
		c0.1,0.2,0.1,0.4,0.2,0.7s0.1,0.5,0.1,0.8c0,0.2,0,0.5,0,0.9v0.7h-5.1v0.2c0,0.5,0,1,0.1,1.3s0.2,0.6,0.3,0.8
		c0.2,0.2,0.4,0.4,0.7,0.5c0.3,0.1,0.7,0.1,1.1,0.1c0.4,0,0.8,0,1.3-0.1c0.5-0.1,0.9-0.1,1.3-0.3l0,0.7c-0.7,0.2-1.6,0.3-2.6,0.3
		c-0.3,0-0.5,0-0.8,0c-0.2,0-0.4-0.1-0.6-0.1c-0.2-0.1-0.4-0.1-0.5-0.2c-0.1-0.1-0.3-0.2-0.4-0.3c-0.1-0.1-0.2-0.3-0.3-0.4
		c-0.1-0.1-0.1-0.3-0.2-0.5c-0.1-0.2-0.1-0.4-0.1-0.6s-0.1-0.4-0.1-0.7c0-0.3,0-0.5,0-0.7C111.3,49.3,111.3,49,111.3,48.7z
		 M112.1,48.6h4.3v-0.3c0-0.3,0-0.5,0-0.7s0-0.4-0.1-0.6c0-0.2-0.1-0.4-0.2-0.5c-0.1-0.1-0.2-0.3-0.4-0.4c-0.1-0.1-0.3-0.2-0.6-0.2
		c-0.2-0.1-0.5-0.1-0.8-0.1c-0.8,0-1.4,0.2-1.7,0.7c-0.3,0.4-0.5,1.1-0.5,2.1V48.6z"/>
	<path class="st0" d="M122.8,49c0-0.6,0-1,0.1-1.4c0-0.4,0.1-0.8,0.3-1.1c0.1-0.3,0.3-0.6,0.5-0.8c0.2-0.2,0.5-0.4,0.9-0.5
		s0.8-0.2,1.3-0.2c0.7,0,1.4,0,2,0.1l-0.1,0.8c-0.6-0.1-1.2-0.2-1.9-0.2c-0.9,0-1.5,0.2-1.8,0.7c-0.3,0.5-0.5,1.3-0.5,2.6
		c0,0.5,0,0.9,0,1.2c0,0.3,0.1,0.6,0.2,0.9c0.1,0.3,0.2,0.5,0.4,0.7c0.2,0.2,0.4,0.3,0.7,0.4c0.3,0.1,0.6,0.1,1,0.1
		c0.5,0,1.1-0.1,1.8-0.2l0.1,0.8c-0.7,0.1-1.3,0.2-1.9,0.2c-0.4,0-0.7,0-1-0.1c-0.3-0.1-0.6-0.1-0.8-0.2c-0.2-0.1-0.4-0.2-0.6-0.4
		c-0.2-0.2-0.3-0.4-0.4-0.6c-0.1-0.2-0.2-0.5-0.2-0.8c-0.1-0.3-0.1-0.6-0.1-0.9C122.8,49.7,122.8,49.4,122.8,49z"/>
	<path class="st0" d="M130,52.8V41.7l0.8-0.2v4.4c1.2-0.6,2.2-1,3-1c1.2,0,1.8,0.6,1.8,1.7v6.2h-0.8v-6.1c0-0.4-0.1-0.6-0.3-0.8
		c-0.2-0.2-0.5-0.2-0.8-0.2c-0.4,0-0.8,0.1-1.4,0.3c-0.5,0.2-1.1,0.4-1.5,0.7v6.2H130z"/>
	<path class="st0" d="M137.7,50.9c0-0.3,0-0.5,0.1-0.8c0-0.2,0.1-0.4,0.2-0.6s0.2-0.3,0.3-0.4c0.1-0.1,0.3-0.2,0.4-0.3
		c0.2-0.1,0.4-0.1,0.5-0.2c0.2,0,0.4-0.1,0.7-0.1c0.3,0,0.5,0,0.8-0.1c0.2,0,0.5,0,0.9,0c0.3,0,0.6,0,0.9,0v-1.5
		c0-0.8-0.6-1.3-1.8-1.3c-0.7,0-1.5,0.1-2.4,0.4l-0.1-0.8c0.4-0.1,0.8-0.2,1.3-0.3c0.5-0.1,0.9-0.1,1.2-0.1c0.9,0,1.6,0.2,2,0.5
		c0.4,0.4,0.6,0.8,0.6,1.5v5.9h-0.8l0-0.8c-0.9,0.6-1.8,0.9-2.7,0.9c-0.2,0-0.4,0-0.6,0c-0.2,0-0.4-0.1-0.6-0.2
		c-0.2-0.1-0.4-0.2-0.5-0.4c-0.1-0.2-0.2-0.4-0.3-0.6C137.8,51.5,137.7,51.2,137.7,50.9z M138.6,50.8c0,0.6,0.1,0.9,0.4,1.1
		c0.3,0.2,0.6,0.3,1.1,0.3c0.8,0,1.7-0.3,2.5-1v-2.2c-0.5,0-0.9,0-1,0c-0.3,0-0.6,0-0.8,0c-0.2,0-0.4,0-0.7,0s-0.4,0.1-0.6,0.1
		c-0.1,0-0.3,0.1-0.4,0.2c-0.1,0.1-0.3,0.2-0.3,0.3c-0.1,0.1-0.1,0.3-0.2,0.4C138.6,50.4,138.6,50.6,138.6,50.8z"/>
	<path class="st0" d="M144.9,46v-0.7h1.3v-2.1l0.8-0.2v2.3h2.2l-0.2,0.7h-2v5c0,0.3,0,0.5,0,0.6c0,0.1,0,0.3,0.1,0.4
		c0.1,0.1,0.1,0.2,0.3,0.2c0.1,0,0.3,0.1,0.5,0.1c0.5,0,1-0.1,1.5-0.2l0.1,0.7c-0.6,0.2-1.2,0.2-1.7,0.2c-0.3,0-0.5,0-0.7-0.1
		c-0.2-0.1-0.3-0.1-0.5-0.2c-0.1-0.1-0.2-0.2-0.3-0.4c-0.1-0.2-0.1-0.4-0.1-0.6c0-0.2,0-0.4,0-0.7v-5H144.9z"/>
	<path class="st0" d="M151.5,52.8V41.7l0.8-0.2v4c0.3-0.2,0.7-0.3,1.2-0.4c0.5-0.1,0.9-0.2,1.4-0.2c0.6,0,1.1,0.1,1.5,0.4
		c0.3,0.2,0.6,0.6,0.7,1.2c0.1,0.6,0.2,1.4,0.2,2.5c0,0.4,0,0.7,0,1c0,0.3,0,0.5-0.1,0.8s-0.1,0.6-0.2,0.8c-0.1,0.2-0.2,0.4-0.4,0.6
		c-0.2,0.2-0.3,0.4-0.5,0.5s-0.5,0.2-0.8,0.3c-0.3,0.1-0.7,0.1-1.1,0.1c-0.3,0-0.8,0-1.3-0.1S151.9,52.9,151.5,52.8z M152.3,52.1
		c0.7,0.1,1.4,0.2,1.9,0.2c0.2,0,0.4,0,0.6-0.1c0.2,0,0.4-0.1,0.5-0.2c0.1-0.1,0.3-0.1,0.4-0.3c0.1-0.1,0.2-0.2,0.3-0.3
		c0.1-0.1,0.1-0.2,0.2-0.4c0.1-0.2,0.1-0.3,0.1-0.5c0-0.1,0.1-0.3,0.1-0.5c0-0.2,0-0.4,0-0.6c0-0.2,0-0.4,0-0.6
		c0-1.3-0.1-2.2-0.3-2.6s-0.7-0.7-1.4-0.7c-0.8,0-1.6,0.2-2.5,0.6V52.1z"/>
	<path class="st0" d="M159.2,49c0-0.5,0-0.9,0-1.2c0-0.3,0.1-0.7,0.2-1c0.1-0.3,0.2-0.6,0.3-0.8c0.1-0.2,0.3-0.4,0.6-0.6
		c0.2-0.2,0.5-0.3,0.8-0.4c0.3-0.1,0.7-0.1,1.2-0.1c0.5,0,1,0.1,1.3,0.2c0.4,0.1,0.7,0.3,0.9,0.5c0.2,0.2,0.4,0.5,0.5,0.8
		c0.1,0.4,0.2,0.7,0.3,1.1c0,0.4,0.1,0.9,0.1,1.4c0,0.6,0,1-0.1,1.4c0,0.4-0.1,0.8-0.3,1.1c-0.1,0.3-0.3,0.6-0.5,0.8
		c-0.2,0.2-0.5,0.4-0.9,0.5c-0.4,0.1-0.8,0.2-1.3,0.2c-0.5,0-1-0.1-1.3-0.2c-0.4-0.1-0.7-0.3-0.9-0.5c-0.2-0.2-0.4-0.5-0.5-0.8
		c-0.1-0.3-0.2-0.7-0.3-1.1C159.2,50,159.2,49.6,159.2,49z M160.1,47.7c0,0.3,0,0.7,0,1.2s0,0.9,0,1.2c0,0.3,0.1,0.6,0.2,0.9
		c0.1,0.3,0.2,0.5,0.4,0.7c0.2,0.2,0.4,0.3,0.7,0.4c0.3,0.1,0.6,0.1,1,0.1c0.3,0,0.6,0,0.9-0.1c0.2-0.1,0.4-0.1,0.6-0.3
		c0.2-0.1,0.3-0.3,0.4-0.4c0.1-0.2,0.2-0.4,0.2-0.6c0.1-0.3,0.1-0.5,0.1-0.8c0-0.3,0-0.6,0-1c0-0.5,0-0.9,0-1.2
		c0-0.3-0.1-0.6-0.2-0.9c-0.1-0.3-0.2-0.5-0.4-0.7c-0.2-0.2-0.4-0.3-0.7-0.4c-0.3-0.1-0.6-0.1-1-0.1c-0.4,0-0.7,0-1,0.1
		c-0.3,0.1-0.5,0.2-0.7,0.4c-0.2,0.2-0.3,0.4-0.4,0.7C160.2,47.1,160.1,47.4,160.1,47.7z"/>
	<path class="st0" d="M166.8,46v-0.7h1.3v-2.1l0.8-0.2v2.3h2.2l-0.2,0.7h-2v5c0,0.3,0,0.5,0,0.6c0,0.1,0,0.3,0.1,0.4
		c0.1,0.1,0.1,0.2,0.3,0.2c0.1,0,0.3,0.1,0.5,0.1c0.5,0,1-0.1,1.5-0.2l0.1,0.7c-0.6,0.2-1.2,0.2-1.7,0.2c-0.3,0-0.5,0-0.7-0.1
		c-0.2-0.1-0.3-0.1-0.5-0.2c-0.1-0.1-0.2-0.2-0.3-0.4c-0.1-0.2-0.1-0.4-0.1-0.6c0-0.2,0-0.4,0-0.7v-5H166.8z"/>
	<path class="st0" d="M176.4,46v-0.7h1.3v-1.8c0-0.7,0.2-1.2,0.5-1.5c0.3-0.3,0.9-0.5,1.7-0.5c0.4,0,0.9,0,1.3,0.1l0,0.7
		c-0.5-0.1-0.9-0.2-1.3-0.2c-0.4,0-0.8,0.1-1,0.3c-0.2,0.2-0.4,0.5-0.4,1v1.7h2.3l-0.2,0.7h-2.1v6.9h-0.8V46H176.4z"/>
	<path class="st0" d="M182.9,52.8v-7.7h0.8l0,1c0.4-0.3,0.8-0.6,1.2-0.8c0.4-0.2,0.9-0.3,1.4-0.5l0,0.9c-0.9,0.1-1.8,0.5-2.7,1.1
		v5.9H182.9z"/>
	<path class="st0" d="M187.6,49c0-0.5,0-0.9,0-1.2c0-0.3,0.1-0.7,0.2-1c0.1-0.3,0.2-0.6,0.3-0.8c0.1-0.2,0.3-0.4,0.6-0.6
		c0.2-0.2,0.5-0.3,0.8-0.4c0.3-0.1,0.7-0.1,1.2-0.1c0.5,0,1,0.1,1.3,0.2c0.4,0.1,0.7,0.3,0.9,0.5c0.2,0.2,0.4,0.5,0.5,0.8
		c0.1,0.4,0.2,0.7,0.3,1.1c0,0.4,0.1,0.9,0.1,1.4c0,0.6,0,1-0.1,1.4c0,0.4-0.1,0.8-0.3,1.1c-0.1,0.3-0.3,0.6-0.5,0.8
		c-0.2,0.2-0.5,0.4-0.9,0.5c-0.4,0.1-0.8,0.2-1.3,0.2c-0.5,0-1-0.1-1.3-0.2c-0.4-0.1-0.7-0.3-0.9-0.5c-0.2-0.2-0.4-0.5-0.5-0.8
		c-0.1-0.3-0.2-0.7-0.3-1.1C187.7,50,187.6,49.6,187.6,49z M188.5,47.7c0,0.3,0,0.7,0,1.2s0,0.9,0,1.2c0,0.3,0.1,0.6,0.2,0.9
		c0.1,0.3,0.2,0.5,0.4,0.7c0.2,0.2,0.4,0.3,0.7,0.4c0.3,0.1,0.6,0.1,1,0.1c0.3,0,0.6,0,0.9-0.1c0.2-0.1,0.4-0.1,0.6-0.3
		c0.2-0.1,0.3-0.3,0.4-0.4c0.1-0.2,0.2-0.4,0.2-0.6c0.1-0.3,0.1-0.5,0.1-0.8c0-0.3,0-0.6,0-1c0-0.5,0-0.9,0-1.2
		c0-0.3-0.1-0.6-0.2-0.9c-0.1-0.3-0.2-0.5-0.4-0.7c-0.2-0.2-0.4-0.3-0.7-0.4c-0.3-0.1-0.6-0.1-1-0.1c-0.4,0-0.7,0-1,0.1
		c-0.3,0.1-0.5,0.2-0.7,0.4c-0.2,0.2-0.3,0.4-0.4,0.7C188.6,47.1,188.5,47.4,188.5,47.7z"/>
	<path class="st0" d="M196.1,52.8v-7.7h0.8l0.1,0.8c0.4-0.3,0.9-0.5,1.4-0.7c0.5-0.2,1-0.3,1.5-0.3c0.8,0,1.3,0.3,1.5,1
		c1.2-0.7,2.2-1,3-1c0.6,0,1,0.1,1.2,0.4c0.2,0.3,0.3,0.7,0.3,1.3v6.2H205v-6.2c0-0.4-0.1-0.7-0.2-0.8c-0.1-0.1-0.4-0.2-0.7-0.2
		c-0.3,0-0.8,0.1-1.3,0.3c-0.5,0.2-1,0.4-1.5,0.8v6.2h-0.8v-6.2c0-0.4-0.1-0.7-0.2-0.8c-0.1-0.1-0.4-0.2-0.7-0.2
		c-0.3,0-0.7,0.1-1.3,0.3c-0.5,0.2-1,0.4-1.5,0.7v6.2H196.1z"/>
	<path class="st0" d="M211.4,52.8l3.8-10.9h1l3.9,10.9h-0.9l-1.2-3.3h-4.7l-1.1,3.3H211.4z M213.7,48.8h4.2l-2.1-6L213.7,48.8z"/>
	<path class="st0" d="M221.5,48.7c0-0.5,0-0.9,0.1-1.3s0.2-0.7,0.3-1c0.1-0.3,0.3-0.6,0.5-0.8c0.2-0.2,0.5-0.4,0.9-0.5
		c0.4-0.1,0.8-0.2,1.3-0.2c0.4,0,0.7,0,1,0.1c0.3,0.1,0.5,0.1,0.7,0.2c0.2,0.1,0.4,0.2,0.5,0.4c0.1,0.2,0.3,0.4,0.3,0.5
		c0.1,0.2,0.1,0.4,0.2,0.7s0.1,0.5,0.1,0.8c0,0.2,0,0.5,0,0.9v0.7h-5.1v0.2c0,0.5,0,1,0.1,1.3s0.2,0.6,0.3,0.8
		c0.2,0.2,0.4,0.4,0.7,0.5c0.3,0.1,0.7,0.1,1.1,0.1c0.4,0,0.8,0,1.3-0.1c0.5-0.1,0.9-0.1,1.3-0.3l0,0.7c-0.7,0.2-1.6,0.3-2.6,0.3
		c-0.3,0-0.5,0-0.8,0c-0.2,0-0.4-0.1-0.6-0.1c-0.2-0.1-0.4-0.1-0.5-0.2c-0.1-0.1-0.3-0.2-0.4-0.3c-0.1-0.1-0.2-0.3-0.3-0.4
		c-0.1-0.1-0.1-0.3-0.2-0.5c-0.1-0.2-0.1-0.4-0.1-0.6s-0.1-0.4-0.1-0.7c0-0.3,0-0.5,0-0.7C221.5,49.3,221.5,49,221.5,48.7z
		 M222.3,48.6h4.3v-0.3c0-0.3,0-0.5,0-0.7s0-0.4-0.1-0.6c0-0.2-0.1-0.4-0.2-0.5c-0.1-0.1-0.2-0.3-0.4-0.4c-0.1-0.1-0.3-0.2-0.6-0.2
		c-0.2-0.1-0.5-0.1-0.8-0.1c-0.8,0-1.4,0.2-1.7,0.7c-0.3,0.4-0.5,1.1-0.5,2.1V48.6z"/>
	<path class="st0" d="M229.3,49c0-0.8,0-1.4,0.1-1.9s0.3-0.9,0.5-1.3c0.2-0.3,0.6-0.6,1-0.8c0.4-0.2,0.9-0.2,1.6-0.2
		c0.9,0,1.8,0.1,2.6,0.2V54c0,0.7-0.2,1.3-0.7,1.6c-0.5,0.4-1.2,0.5-2.3,0.5c-1,0-1.9-0.1-2.7-0.3l0-0.7c0.4,0.1,0.8,0.2,1.3,0.3
		c0.5,0.1,0.9,0.1,1.3,0.1c0.8,0,1.4-0.1,1.7-0.3c0.3-0.2,0.5-0.6,0.5-1.1v-1.5c-0.3,0.1-0.7,0.3-1.2,0.4c-0.5,0.1-0.9,0.2-1.4,0.2
		c-0.3,0-0.5,0-0.8-0.1c-0.2,0-0.4-0.1-0.6-0.2c-0.2-0.1-0.3-0.2-0.4-0.3c-0.1-0.1-0.2-0.3-0.3-0.4c-0.1-0.2-0.1-0.4-0.2-0.5
		c-0.1-0.2-0.1-0.4-0.1-0.7c0-0.3,0-0.5-0.1-0.8S229.3,49.4,229.3,49z M230.1,49c0,0.3,0,0.6,0,0.9c0,0.2,0,0.5,0.1,0.7
		c0,0.2,0.1,0.4,0.1,0.6c0.1,0.2,0.1,0.3,0.2,0.4c0.1,0.1,0.2,0.2,0.3,0.3c0.1,0.1,0.3,0.1,0.4,0.2c0.2,0,0.4,0.1,0.6,0.1
		c0.8,0,1.6-0.2,2.4-0.5v-5.9c-0.7-0.1-1.3-0.2-1.9-0.2c-0.4,0-0.7,0-1,0.1c-0.3,0.1-0.5,0.2-0.7,0.4c-0.2,0.2-0.3,0.4-0.4,0.7
		c-0.1,0.3-0.2,0.6-0.2,0.9C230.2,48.1,230.1,48.5,230.1,49z"/>
	<path class="st0" d="M237.4,49c0-0.5,0-0.9,0-1.2c0-0.3,0.1-0.7,0.2-1c0.1-0.3,0.2-0.6,0.3-0.8c0.1-0.2,0.3-0.4,0.6-0.6
		c0.2-0.2,0.5-0.3,0.8-0.4c0.3-0.1,0.7-0.1,1.2-0.1c0.5,0,1,0.1,1.3,0.2c0.4,0.1,0.7,0.3,0.9,0.5c0.2,0.2,0.4,0.5,0.5,0.8
		c0.1,0.4,0.2,0.7,0.3,1.1c0,0.4,0.1,0.9,0.1,1.4c0,0.6,0,1-0.1,1.4c0,0.4-0.1,0.8-0.3,1.1c-0.1,0.3-0.3,0.6-0.5,0.8
		c-0.2,0.2-0.5,0.4-0.9,0.5c-0.4,0.1-0.8,0.2-1.3,0.2c-0.5,0-1-0.1-1.3-0.2c-0.4-0.1-0.7-0.3-0.9-0.5c-0.2-0.2-0.4-0.5-0.5-0.8
		c-0.1-0.3-0.2-0.7-0.3-1.1C237.4,50,237.4,49.6,237.4,49z M238.3,47.7c0,0.3,0,0.7,0,1.2s0,0.9,0,1.2c0,0.3,0.1,0.6,0.2,0.9
		c0.1,0.3,0.2,0.5,0.4,0.7c0.2,0.2,0.4,0.3,0.7,0.4c0.3,0.1,0.6,0.1,1,0.1c0.3,0,0.6,0,0.9-0.1c0.2-0.1,0.4-0.1,0.6-0.3
		c0.2-0.1,0.3-0.3,0.4-0.4c0.1-0.2,0.2-0.4,0.2-0.6c0.1-0.3,0.1-0.5,0.1-0.8c0-0.3,0-0.6,0-1c0-0.5,0-0.9,0-1.2
		c0-0.3-0.1-0.6-0.2-0.9c-0.1-0.3-0.2-0.5-0.4-0.7c-0.2-0.2-0.4-0.3-0.7-0.4c-0.3-0.1-0.6-0.1-1-0.1c-0.4,0-0.7,0-1,0.1
		c-0.3,0.1-0.5,0.2-0.7,0.4c-0.2,0.2-0.3,0.4-0.4,0.7C238.3,47.1,238.3,47.4,238.3,47.7z"/>
	<path class="st0" d="M245.9,52.8v-7.7h0.8l0.1,0.8c1.2-0.6,2.2-1,3-1c1.2,0,1.8,0.6,1.8,1.7v6.2h-0.8v-6.1c0-0.4-0.1-0.6-0.3-0.8
		c-0.2-0.2-0.5-0.2-0.8-0.2c-0.4,0-0.8,0.1-1.4,0.3c-0.5,0.2-1.1,0.4-1.5,0.7v6.2H245.9z"/>
</g>
<g>
	<path class="st0" d="M49.3,37.2l7.4-21.9H61l7.4,21.9h-4l-1.7-5.5h-7.9l-1.7,5.5H49.3z M55.7,28.7h6l-3-9.7L55.7,28.7z"/>
	<path class="st0" d="M70.9,37.2V21.5H74l0.4,1.5c0.8-0.5,1.8-0.9,2.8-1.2c1-0.3,2-0.5,2.9-0.5c1.4,0,2.3,0.4,2.9,1.1
		c0.6,0.7,0.8,1.8,0.8,3v11.9h-3.7V26.1c0-1.1-0.5-1.6-1.4-1.6c-0.5,0-1.2,0.1-2,0.4c-0.8,0.3-1.5,0.6-2.2,1v11.3H70.9z"/>
	<path class="st0" d="M87.9,37.2V21.5H91l0.4,1.5c0.8-0.5,1.8-0.9,2.8-1.2c1-0.3,2-0.5,2.9-0.5c1.4,0,2.3,0.4,2.9,1.1
		c0.6,0.7,0.8,1.8,0.8,3v11.9h-3.7V26.1c0-1.1-0.5-1.6-1.4-1.6c-0.5,0-1.2,0.1-2,0.4c-0.8,0.3-1.5,0.6-2.2,1v11.3H87.9z"/>
	<path class="st0" d="M104.3,33c0-0.9,0.1-1.6,0.3-2.2c0.2-0.6,0.5-1.1,0.8-1.4c0.3-0.4,0.8-0.7,1.5-0.9c0.6-0.2,1.3-0.3,2-0.4
		c0.7-0.1,1.6-0.1,2.7-0.1c0.6,0,1.1,0,1.7,0v-1.6c0-0.8-0.2-1.4-0.6-1.8c-0.4-0.4-1.1-0.6-2.3-0.6c-1.5,0-3.2,0.3-5,0.8l-0.2-2.9
		c0.7-0.2,1.6-0.4,2.7-0.5c1.1-0.1,2.1-0.2,3-0.2c2.2,0,3.7,0.4,4.6,1.2c0.9,0.8,1.3,2.2,1.3,4.1v10.7h-3.1l-0.3-1.3
		c-1.7,1.1-3.3,1.6-4.9,1.6c-1.3,0-2.3-0.4-3.1-1.1S104.3,34.6,104.3,33z M107.9,32.8c0,0.7,0.1,1.2,0.4,1.5
		c0.3,0.3,0.7,0.5,1.4,0.5c1.2,0,2.4-0.4,3.6-1.3v-2.8c-0.5,0-1,0-1.4,0c-0.6,0-1.1,0-1.5,0c-0.4,0-0.7,0.1-1.1,0.1
		s-0.6,0.2-0.8,0.4s-0.3,0.4-0.4,0.6C108,32,107.9,32.4,107.9,32.8z"/>
</g>
</svg>
